<svg width="206" height="78" viewBox="0 0 206 78" fill="none" xmlns="http://www.w3.org/2000/svg">
<path d="M15.7003 23.6001C15.3003 23.6001 15.2003 23.4001 15.4003 23.1001L17.5003 20.4001C17.7003 20.1001 18.2003 19.9001 18.6003 19.9001H54.3003C54.7003 19.9001 54.8003 20.2001 54.6003 20.5001L52.9003 23.1001C52.7003 23.4001 52.2003 23.7001 51.9003 23.7001L15.7003 23.6001Z" fill="#00ACD7"/>
<path d="M0.600196 32.8001C0.200196 32.8001 0.100195 32.6001 0.300195 32.3001L2.4002 29.6001C2.6002 29.3001 3.1002 29.1001 3.5002 29.1001H49.1002C49.5002 29.1001 49.7002 29.4001 49.6002 29.7001L48.8002 32.1001C48.7002 32.5001 48.3002 32.7001 47.9002 32.7001L0.600196 32.8001Z" fill="#00ACD7"/>
<path d="M24.8004 42C24.4004 42 24.3004 41.7 24.5004 41.4L25.9004 38.9C26.1004 38.6 26.5004 38.3 26.9004 38.3H46.9004C47.3004 38.3 47.5004 38.6 47.5004 39L47.3004 41.4C47.3004 41.8 46.9004 42.1 46.6004 42.1L24.8004 42Z" fill="#00ACD7"/>
<path d="M128.6 21.8001C122.3 23.4001 118 24.6 111.8 26.2C110.3 26.6 110.2 26.7 108.9 25.2C107.4 23.5 106.3 22.4001 104.2 21.4001C97.9004 18.3001 91.8004 19.2001 86.1004 22.9001C79.3004 27.3001 75.8004 33.8001 75.9004 41.9001C76.0004 49.9001 81.5004 56.5001 89.4004 57.6001C96.2004 58.5001 101.9 56.1 106.4 51C107.3 49.9 108.1 48.7001 109.1 47.3001C105.5 47.3001 101 47.3001 89.8004 47.3001C87.7004 47.3001 87.2004 46.0001 87.9004 44.3001C89.2004 41.2001 91.6004 36.0001 93.0004 33.4001C93.3004 32.8001 94.0004 31.8001 95.5004 31.8001C100.6 31.8001 119.4 31.8001 131.9 31.8001C131.7 34.5001 131.7 37.2001 131.3 39.9001C130.2 47.1001 127.5 53.7 123.1 59.5C115.9 69 106.5 74.9001 94.6004 76.5001C84.8004 77.8001 75.7004 75.9 67.7004 69.9C60.3004 64.3 56.1004 56.9 55.0004 47.7C53.7004 36.8 56.9004 27.0001 63.5004 18.4001C70.6004 9.10005 80.0004 3.20005 91.5004 1.10005C100.9 -0.599951 109.9 0.500051 118 6.00005C123.3 9.50005 127.1 14.3 129.6 20.1C130.2 21 129.8 21.5001 128.6 21.8001Z" fill="#00ACD7"/>
<path d="M161.7 77.1001C152.6 76.9001 144.3 74.3001 137.3 68.3001C131.4 63.2001 127.7 56.7001 126.5 49.0001C124.7 37.7001 127.8 27.7001 134.6 18.8001C141.9 9.2001 150.7 4.20009 162.6 2.10009C172.8 0.300092 182.4 1.30009 191.1 7.20009C199 12.6001 203.9 19.9001 205.2 29.5001C206.9 43.0001 203 54.0001 193.7 63.4001C187.1 70.1001 179 74.3001 169.7 76.2001C167 76.7001 164.3 76.8001 161.7 77.1001ZM185.5 36.7001C185.4 35.4001 185.4 34.4001 185.2 33.4001C183.4 23.5001 174.3 17.9001 164.8 20.1001C155.5 22.2001 149.5 28.1001 147.3 37.5001C145.5 45.3001 149.3 53.2001 156.5 56.4001C162 58.8001 167.5 58.5001 172.8 55.8001C180.7 51.7001 185 45.3001 185.5 36.7001Z" fill="#00ACD7"/>
</svg>
